<mxfile host="www.draw.io" modified="2020-03-02T14:40:48.571Z" agent="Mozilla/5.0 (Windows NT 10.0; Win64; x64) AppleWebKit/537.36 (KHTML, like Gecko) Chrome/80.0.3987.122 Safari/537.36" etag="clDvY6PVaRo_-mSGesO2" version="12.7.9" type="github">
  <diagram id="BNcIKLdEGNh3Ma60sMkG" name="Page-1">
    <mxGraphModel dx="2031" dy="1089" grid="1" gridSize="10" guides="1" tooltips="1" connect="1" arrows="1" fold="1" page="1" pageScale="1" pageWidth="1600" pageHeight="900" math="0" shadow="0">
      <root>
        <mxCell id="0" />
        <mxCell id="1" parent="0" />
        <mxCell id="7BJcHZZlpJCXAgmskEQ--22" style="edgeStyle=orthogonalEdgeStyle;rounded=0;orthogonalLoop=1;jettySize=auto;html=1;exitX=0.5;exitY=1;exitDx=0;exitDy=0;entryX=0;entryY=0.5;entryDx=0;entryDy=0;endArrow=none;endFill=0;" edge="1" parent="1" source="7BJcHZZlpJCXAgmskEQ--10" target="7BJcHZZlpJCXAgmskEQ--13">
          <mxGeometry relative="1" as="geometry" />
        </mxCell>
        <mxCell id="7BJcHZZlpJCXAgmskEQ--23" style="edgeStyle=orthogonalEdgeStyle;rounded=0;orthogonalLoop=1;jettySize=auto;html=1;exitX=0.5;exitY=1;exitDx=0;exitDy=0;entryX=0;entryY=0.5;entryDx=0;entryDy=0;endArrow=none;endFill=0;" edge="1" parent="1" source="7BJcHZZlpJCXAgmskEQ--10" target="7BJcHZZlpJCXAgmskEQ--14">
          <mxGeometry relative="1" as="geometry" />
        </mxCell>
        <mxCell id="7BJcHZZlpJCXAgmskEQ--24" style="edgeStyle=orthogonalEdgeStyle;rounded=0;orthogonalLoop=1;jettySize=auto;html=1;exitX=0.5;exitY=1;exitDx=0;exitDy=0;entryX=0;entryY=0.5;entryDx=0;entryDy=0;endArrow=none;endFill=0;" edge="1" parent="1" source="7BJcHZZlpJCXAgmskEQ--10" target="7BJcHZZlpJCXAgmskEQ--17">
          <mxGeometry relative="1" as="geometry" />
        </mxCell>
        <mxCell id="7BJcHZZlpJCXAgmskEQ--25" style="edgeStyle=orthogonalEdgeStyle;rounded=0;orthogonalLoop=1;jettySize=auto;html=1;exitX=0.5;exitY=1;exitDx=0;exitDy=0;entryX=0;entryY=0.5;entryDx=0;entryDy=0;endArrow=none;endFill=0;" edge="1" parent="1" source="7BJcHZZlpJCXAgmskEQ--10" target="7BJcHZZlpJCXAgmskEQ--18">
          <mxGeometry relative="1" as="geometry" />
        </mxCell>
        <mxCell id="7BJcHZZlpJCXAgmskEQ--26" style="edgeStyle=orthogonalEdgeStyle;rounded=0;orthogonalLoop=1;jettySize=auto;html=1;exitX=0.5;exitY=1;exitDx=0;exitDy=0;entryX=0;entryY=0.5;entryDx=0;entryDy=0;endArrow=none;endFill=0;" edge="1" parent="1" source="7BJcHZZlpJCXAgmskEQ--10" target="7BJcHZZlpJCXAgmskEQ--19">
          <mxGeometry relative="1" as="geometry" />
        </mxCell>
        <mxCell id="7BJcHZZlpJCXAgmskEQ--10" value="&lt;span style=&quot;font-size: 26px ; white-space: normal&quot;&gt;Moving the body&lt;/span&gt;" style="rounded=1;whiteSpace=wrap;html=1;" vertex="1" parent="1">
          <mxGeometry x="200" y="150" width="190" height="90" as="geometry" />
        </mxCell>
        <mxCell id="7BJcHZZlpJCXAgmskEQ--21" style="edgeStyle=orthogonalEdgeStyle;rounded=0;orthogonalLoop=1;jettySize=auto;html=1;exitX=0.25;exitY=1;exitDx=0;exitDy=0;entryX=0.5;entryY=0;entryDx=0;entryDy=0;endArrow=none;endFill=0;" edge="1" parent="1" source="7BJcHZZlpJCXAgmskEQ--11" target="7BJcHZZlpJCXAgmskEQ--10">
          <mxGeometry relative="1" as="geometry" />
        </mxCell>
        <mxCell id="7BJcHZZlpJCXAgmskEQ--30" style="edgeStyle=orthogonalEdgeStyle;rounded=0;orthogonalLoop=1;jettySize=auto;html=1;exitX=0.5;exitY=1;exitDx=0;exitDy=0;entryX=0.5;entryY=0;entryDx=0;entryDy=0;endArrow=none;endFill=0;" edge="1" parent="1" source="7BJcHZZlpJCXAgmskEQ--11" target="7BJcHZZlpJCXAgmskEQ--29">
          <mxGeometry relative="1" as="geometry" />
        </mxCell>
        <mxCell id="7BJcHZZlpJCXAgmskEQ--31" style="edgeStyle=orthogonalEdgeStyle;rounded=0;orthogonalLoop=1;jettySize=auto;html=1;exitX=0.75;exitY=1;exitDx=0;exitDy=0;entryX=0.5;entryY=0;entryDx=0;entryDy=0;endArrow=none;endFill=0;" edge="1" parent="1" source="7BJcHZZlpJCXAgmskEQ--11" target="7BJcHZZlpJCXAgmskEQ--12">
          <mxGeometry relative="1" as="geometry" />
        </mxCell>
        <mxCell id="7BJcHZZlpJCXAgmskEQ--11" value="&lt;span style=&quot;font-size: 26px ; white-space: normal&quot;&gt;Transporting light loads&amp;nbsp;&lt;/span&gt;" style="rounded=1;whiteSpace=wrap;html=1;" vertex="1" parent="1">
          <mxGeometry x="640" y="30" width="350" height="70" as="geometry" />
        </mxCell>
        <mxCell id="7BJcHZZlpJCXAgmskEQ--12" value="&lt;font style=&quot;font-size: 26px&quot;&gt;Taking and placing the load&lt;/font&gt;" style="rounded=1;whiteSpace=wrap;html=1;" vertex="1" parent="1">
          <mxGeometry x="1160" y="165" width="260" height="60" as="geometry" />
        </mxCell>
        <mxCell id="7BJcHZZlpJCXAgmskEQ--13" value="Detecting the load" style="rounded=1;whiteSpace=wrap;html=1;fontSize=26;" vertex="1" parent="1">
          <mxGeometry x="400" y="280" width="220" height="90" as="geometry" />
        </mxCell>
        <mxCell id="7BJcHZZlpJCXAgmskEQ--28" style="edgeStyle=orthogonalEdgeStyle;rounded=0;orthogonalLoop=1;jettySize=auto;html=1;exitX=0.5;exitY=1;exitDx=0;exitDy=0;entryX=0;entryY=0.5;entryDx=0;entryDy=0;endArrow=none;endFill=0;" edge="1" parent="1" source="7BJcHZZlpJCXAgmskEQ--14" target="7BJcHZZlpJCXAgmskEQ--27">
          <mxGeometry relative="1" as="geometry" />
        </mxCell>
        <mxCell id="7BJcHZZlpJCXAgmskEQ--14" value="&lt;font style=&quot;font-size: 26px&quot;&gt;Planning the trajectory&lt;/font&gt;" style="rounded=1;whiteSpace=wrap;html=1;" vertex="1" parent="1">
          <mxGeometry x="400" y="380" width="220" height="90" as="geometry" />
        </mxCell>
        <mxCell id="7BJcHZZlpJCXAgmskEQ--17" value="&lt;font style=&quot;font-size: 26px&quot;&gt;Performing inverse kinematics calculations&lt;/font&gt;" style="rounded=1;whiteSpace=wrap;html=1;" vertex="1" parent="1">
          <mxGeometry x="400" y="570" width="220" height="100" as="geometry" />
        </mxCell>
        <mxCell id="7BJcHZZlpJCXAgmskEQ--18" value="&lt;font style=&quot;font-size: 26px&quot;&gt;Driving the motors&lt;/font&gt;" style="rounded=1;whiteSpace=wrap;html=1;" vertex="1" parent="1">
          <mxGeometry x="400" y="680" width="220" height="100" as="geometry" />
        </mxCell>
        <mxCell id="7BJcHZZlpJCXAgmskEQ--19" value="&lt;font style=&quot;font-size: 26px&quot;&gt;Getting position feedback&lt;/font&gt;" style="rounded=1;whiteSpace=wrap;html=1;" vertex="1" parent="1">
          <mxGeometry x="400" y="790" width="220" height="100" as="geometry" />
        </mxCell>
        <mxCell id="7BJcHZZlpJCXAgmskEQ--27" value="&lt;font style=&quot;font-size: 26px&quot;&gt;Avoiding fixed obstacles&lt;/font&gt;" style="rounded=1;whiteSpace=wrap;html=1;" vertex="1" parent="1">
          <mxGeometry x="640" y="470" width="170" height="100" as="geometry" />
        </mxCell>
        <mxCell id="7BJcHZZlpJCXAgmskEQ--29" value="&lt;font style=&quot;font-size: 26px&quot;&gt;Acquiring energy&lt;/font&gt;" style="rounded=1;whiteSpace=wrap;html=1;" vertex="1" parent="1">
          <mxGeometry x="660" y="165" width="310" height="60" as="geometry" />
        </mxCell>
        <mxCell id="7BJcHZZlpJCXAgmskEQ--32" value="&lt;font style=&quot;font-size: 26px&quot;&gt;Approaching to the load vertically&lt;/font&gt;" style="rounded=1;whiteSpace=wrap;html=1;" vertex="1" parent="1">
          <mxGeometry x="1260" y="270" width="180" height="90" as="geometry" />
        </mxCell>
        <mxCell id="7BJcHZZlpJCXAgmskEQ--33" value="&lt;font style=&quot;font-size: 26px&quot;&gt;Interacting with the&lt;/font&gt;" style="rounded=1;whiteSpace=wrap;html=1;" vertex="1" parent="1">
          <mxGeometry x="1290" y="410" width="120" height="60" as="geometry" />
        </mxCell>
      </root>
    </mxGraphModel>
  </diagram>
</mxfile>
